<svg width="2502" height="2506" viewBox="0 0 2502 2506" fill="none" xmlns="http://www.w3.org/2000/svg">
<path d="M1656 1658C1656 1817.81 1608.61 1974.03 1519.83 2106.9C1431.04 2239.78 1304.85 2343.34 1157.21 2404.49C1009.57 2465.65 847.104 2481.65 690.367 2450.47C533.63 2419.3 389.659 2342.34 276.658 2229.34C163.657 2116.34 86.7026 1972.37 55.5258 1815.63C24.349 1658.9 40.3501 1496.43 101.506 1348.79C162.661 1201.15 266.225 1074.96 399.1 986.172C531.975 897.388 688.193 850 848.001 850" stroke="#9D22C8" stroke-width="80" stroke-miterlimit="16"/>
<path d="M846.5 891C846.5 731.193 892.903 531.975 981.714 399.1C1070.53 266.225 1196.76 162.662 1344.44 101.506C1492.13 40.3504 1654.64 24.349 1811.43 55.5255C1968.21 86.702 2112.23 163.656 2225.27 276.657C2338.3 389.657 2415.28 533.628 2446.47 690.365C2477.66 847.101 2461.65 1009.56 2400.48 1157.21C2339.3 1304.85 2235.71 1431.04 2102.79 1519.83C1969.88 1608.61 1776.36 1655.5 1616.5 1655.5" stroke="#43DD29" stroke-width="80" stroke-miterlimit="16"/>
</svg>
